<svg xmlns="http://www.w3.org/2000/svg" width="37" height="46.387" viewBox="0 0 37 46.387">
  <g id="ici-8values-innovation" transform="translate(-9.657 -6.007)">
    <path id="Path_66" data-name="Path 66" d="M34.066,18.53h-6.54L32.157,13.9a.648.648,0,0,0-.916-.916L26.61,17.614v-6.54a.645.645,0,1,0-1.29,0v6.54L20.69,12.984a.648.648,0,1,0-.916.916L24.4,18.53h-6.54a.645.645,0,0,0,0,1.29H24.4l-4.631,4.631a.639.639,0,0,0,0,.916.626.626,0,0,0,.9,0l4.631-4.631v6.54a.645.645,0,1,0,1.29,0v-6.54l4.643,4.618a.648.648,0,0,0,.451.193.677.677,0,0,0,.464-.193.639.639,0,0,0,0-.916l-4.631-4.631h6.54a.639.639,0,0,0,.645-.645A.628.628,0,0,0,34.066,18.53Z" transform="translate(2.192 1.282)" fill="#fff"/>
    <path id="Path_67" data-name="Path 67" d="M44.964,12.8A25.338,25.338,0,0,0,28.183,6.011a25.38,25.38,0,0,0-16.846,6.81,6.58,6.58,0,0,0-.929,7.455L17.49,32.659a4,4,0,0,1,.529,2v9.971a4.629,4.629,0,0,0,.645,2.348l2.709,4.334a2.271,2.271,0,0,0,1.948,1.083h9.661a2.271,2.271,0,0,0,1.948-1.083l2.722-4.347a4.629,4.629,0,0,0,.632-2.335V34.658a4.03,4.03,0,0,1,.529-2l7.094-12.421a6.568,6.568,0,0,0-.942-7.442ZM37.006,44.6v.052H19.335V37.29H37.019V44.6Zm-3.16,6a1,1,0,0,1-.851.477H23.333a1,1,0,0,1-.851-.477l-2.7-4.321c-.064-.1-.09-.232-.142-.335H36.709a3.506,3.506,0,0,1-.142.322L33.846,50.6ZM44.784,19.619,37.7,32a5.25,5.25,0,0,0-.7,2.631V36h-17.7V34.633a5.349,5.349,0,0,0-.7-2.631L11.557,19.657a5.192,5.192,0,0,1,.671-5.92A24.569,24.569,0,0,1,28.041,7.3h.129a24.428,24.428,0,0,1,15.891,6.423,5.179,5.179,0,0,1,.722,5.895Z" transform="translate(0 0)" fill="#fff"/>
  </g>
</svg>
