<svg xmlns="http://www.w3.org/2000/svg" width="40.699" height="41.052" viewBox="0 0 40.699 41.052">
  <g id="ici-8values-sustainability" transform="translate(-5.679 -5.859)">
    <path id="Path_68" data-name="Path 68" d="M40.251,6.993h0c1.859,0,3.4.1,4.318.181-.34,4.59-2.674,23.1-17.962,27.526a14.268,14.268,0,0,1-3.989.533,27.447,27.447,0,0,1-9.667-2.017,19.118,19.118,0,0,1,1.065-13.735C19.036,8.671,32.6,7.016,40.251,7.016m0-1.133C32.318,5.883,18.277,7.571,13,18.96a19.707,19.707,0,0,0-.941,15.072A28.467,28.467,0,0,0,22.617,36.39a15.525,15.525,0,0,0,4.306-.578C45.35,30.44,45.758,6.155,45.758,6.155a46.068,46.068,0,0,0-5.508-.295Z" transform="translate(0.62 0)" fill="#fff"/>
    <path id="Path_69" data-name="Path 69" d="M29.947,16.39s-6.539,3.252-14.426,12.6A64.821,64.821,0,0,0,6.33,44.857" transform="translate(0 1.403)" fill="none" stroke="#fff" stroke-linecap="round" stroke-width="1"/>
  </g>
</svg>
